<svg width="24" height="24" viewBox="0 0 24 24" fill="none" xmlns="http://www.w3.org/2000/svg">
<path fill-rule="evenodd" clip-rule="evenodd" d="M3.22827 6.55725C3.22827 4.38755 4.98715 2.62866 7.15685 2.62866C9.32655 2.62866 11.0854 4.38755 11.0854 6.55725C11.0854 8.72694 9.32654 10.4858 7.15685 10.4858C4.98715 10.4858 3.22827 8.72695 3.22827 6.55725ZM7.15685 3.62866C5.53944 3.62866 4.22827 4.93983 4.22827 6.55725C4.22827 8.17465 5.53943 9.4858 7.15685 9.4858C8.77426 9.4858 10.0854 8.17466 10.0854 6.55725C10.0854 4.93982 8.77425 3.62866 7.15685 3.62866Z" fill="#0962E8"/>
<path fill-rule="evenodd" clip-rule="evenodd" d="M13.5139 16.8429C13.5139 14.6732 15.2728 12.9143 17.4425 12.9143C19.6122 12.9143 21.371 14.6732 21.371 16.8429C21.371 19.0125 19.6122 20.7715 17.4425 20.7715C15.2728 20.7715 13.5139 19.0126 13.5139 16.8429ZM17.4425 13.9143C15.825 13.9143 14.5139 15.2255 14.5139 16.8429C14.5139 18.4603 15.825 19.7715 17.4425 19.7715C19.0599 19.7715 20.371 18.4603 20.371 16.8429C20.371 15.2255 19.0599 13.9143 17.4425 13.9143Z" fill="#0962E8"/>
<path fill-rule="evenodd" clip-rule="evenodd" d="M2.03719 11.2747C2.1846 11.1836 2.36867 11.1753 2.52366 11.2528L5.85697 12.9195C6.10396 13.043 6.20407 13.3433 6.08057 13.5903C5.95707 13.8373 5.65673 13.9374 5.40975 13.8139L2.83553 12.5268C3.25447 17.3864 7.3319 21.2 12.3 21.2C12.5762 21.2 12.8 21.4239 12.8 21.7C12.8 21.9762 12.5762 22.2 12.3 22.2C6.50107 22.2 1.80005 17.499 1.80005 11.7C1.80005 11.5267 1.88978 11.3658 2.03719 11.2747Z" fill="#0962E8"/>
<path fill-rule="evenodd" clip-rule="evenodd" d="M11.8 1.70001C11.8 1.42387 12.0238 1.20001 12.3 1.20001C18.099 1.20001 22.8 5.901 22.8 11.7C22.8 11.8733 22.7103 12.0342 22.5629 12.1253C22.4154 12.2164 22.2314 12.2247 22.0764 12.1472L18.743 10.4806C18.496 10.3571 18.3959 10.0567 18.5194 9.80976C18.6429 9.56277 18.9433 9.46265 19.1902 9.58615L21.7645 10.8733C21.3456 6.01366 17.2682 2.20001 12.3 2.20001C12.0238 2.20001 11.8 1.97615 11.8 1.70001Z" fill="#0962E8"/>
</svg>
