<svg width="24" height="24" viewBox="0 0 24 24" fill="none" xmlns="http://www.w3.org/2000/svg">
<path fill-rule="evenodd" clip-rule="evenodd" d="M8.29999 6.26939C8.29999 4.09003 10.1006 2.34082 12.3 2.34082C14.4994 2.34082 16.3 4.09003 16.3 6.26939C16.3 8.44875 14.4994 10.198 12.3 10.198C10.1006 10.198 8.29999 8.44875 8.29999 6.26939ZM12.3 3.34082C10.6334 3.34082 9.29999 4.66166 9.29999 6.26939C9.29999 7.87713 10.6334 9.19796 12.3 9.19796C13.9666 9.19796 15.3 7.87713 15.3 6.26939C15.3 4.66166 13.9666 3.34082 12.3 3.34082Z" fill="#0962E8"/>
<path fill-rule="evenodd" clip-rule="evenodd" d="M11.3 13.6265C6.53841 13.6265 2.80005 16.974 2.80005 20.9633C2.80005 21.2394 2.57619 21.4633 2.30005 21.4633C2.02391 21.4633 1.80005 21.2394 1.80005 20.9633C1.80005 16.2962 6.12058 12.6265 11.3 12.6265C11.5762 12.6265 11.8 12.8504 11.8 13.1265C11.8 13.4027 11.5762 13.6265 11.3 13.6265Z" fill="#0962E8"/>
<path fill-rule="evenodd" clip-rule="evenodd" d="M13.8 16.7934C13.8 15.3678 14.8256 14.0959 16.225 14.0959C16.8366 14.0959 17.3833 14.3454 17.8 14.7414C18.2168 14.3454 18.7635 14.0959 19.3751 14.0959C20.7745 14.0959 21.8 15.3678 21.8 16.7934C21.8 18.0605 21.1493 19.222 20.3871 20.1006C19.6256 20.9785 18.6856 21.6519 17.9774 21.9206C17.8631 21.9639 17.737 21.9639 17.6227 21.9206C16.9145 21.6519 15.9745 20.9785 15.213 20.1006C14.4508 19.222 13.8 18.0605 13.8 16.7934ZM16.225 15.0959C15.4982 15.0959 14.8 15.7917 14.8 16.7934C14.8 17.7236 15.2868 18.6597 15.9684 19.4454C16.5768 20.1468 17.287 20.6663 17.8 20.9095C18.3131 20.6663 19.0233 20.1468 19.6317 19.4454C20.3133 18.6597 20.8 17.7236 20.8 16.7934C20.8 15.7917 20.1019 15.0959 19.3751 15.0959C18.9237 15.0959 18.4976 15.3512 18.2256 15.7921C18.1345 15.9397 17.9735 16.0296 17.8 16.0296C17.6266 16.0296 17.4656 15.9397 17.3745 15.7921C17.1025 15.3512 16.6764 15.0959 16.225 15.0959Z" fill="#0962E8"/>
</svg>
