<svg width="24" height="24" viewBox="0 0 24 24" fill="none" xmlns="http://www.w3.org/2000/svg">
<path fill-rule="evenodd" clip-rule="evenodd" d="M8.2771 3.29144C8.2771 1.50046 9.72899 0.048584 11.52 0.048584C13.3109 0.048584 14.7628 1.50046 14.7628 3.29144C14.7628 5.08241 13.3109 6.5343 11.52 6.5343C9.72899 6.5343 8.2771 5.08241 8.2771 3.29144ZM11.52 1.04858C10.2813 1.04858 9.2771 2.05275 9.2771 3.29144C9.2771 4.53012 10.2813 5.5343 11.52 5.5343C12.7586 5.5343 13.7628 4.53012 13.7628 3.29144C13.7628 2.05275 12.7586 1.04858 11.52 1.04858Z" fill="#0962E8"/>
<path fill-rule="evenodd" clip-rule="evenodd" d="M9.83857 8.82575H13.2014C13.677 8.82573 13.9542 8.82572 14.1934 8.84927C16.5144 9.07787 18.3507 10.9141 18.5793 13.2352C18.6029 13.4744 18.6029 13.7516 18.6028 14.2273V14.2629C18.6028 14.539 18.379 14.7629 18.1028 14.7629H4.93714C4.66099 14.7629 4.43714 14.539 4.43714 14.2629L4.43713 14.2272C4.43712 13.7516 4.43711 13.4744 4.46066 13.2352C4.68926 10.9142 6.52554 9.07787 8.84656 8.84927C9.08578 8.82573 9.36296 8.82573 9.83857 8.82575ZM9.87428 9.82575C9.35293 9.82575 9.12851 9.82635 8.94456 9.84446C7.09833 10.0263 5.63769 11.4869 5.45585 13.3332C5.44499 13.4435 5.44043 13.5683 5.43851 13.7629H17.6015C17.5996 13.5683 17.595 13.4435 17.5841 13.3332C17.4023 11.4869 15.9417 10.0263 14.0954 9.84446M14.0954 9.84446C13.9115 9.82635 13.687 9.82575 13.1657 9.82575H9.87428" fill="#0962E8"/>
<path fill-rule="evenodd" clip-rule="evenodd" d="M2.61472 12.7767C2.76419 13.0089 2.69713 13.3183 2.46494 13.4678C1.47421 14.1055 1.04858 14.7666 1.04858 15.3603C1.04858 15.7845 1.26143 16.2391 1.75433 16.7053C2.24828 17.1724 2.98988 17.6161 3.94774 17.9993C5.86067 18.7644 8.53766 19.2489 11.52 19.2489C14.5024 19.2489 17.1794 18.7644 19.0923 17.9993C20.0501 17.6161 20.7917 17.1724 21.2857 16.7053C21.7786 16.2391 21.9914 15.7845 21.9914 15.3603C21.9914 14.7666 21.5658 14.1055 20.5751 13.4678C20.3429 13.3183 20.2758 13.0089 20.4253 12.7767C20.5748 12.5445 20.8842 12.4775 21.1164 12.6269C22.2121 13.3323 22.9914 14.2564 22.9914 15.3603C22.9914 16.148 22.5903 16.8479 21.9728 17.4318C21.3564 18.0148 20.4913 18.5167 19.4637 18.9277C17.4057 19.7509 14.597 20.2489 11.52 20.2489C8.44301 20.2489 5.63428 19.7509 3.57635 18.9277C2.54876 18.5167 1.68363 18.0148 1.06722 17.4318C0.449749 16.8479 0.048584 16.148 0.048584 15.3603C0.048584 14.2564 0.827917 13.3323 1.92366 12.6269C2.15585 12.4775 2.46525 12.5445 2.61472 12.7767Z" fill="#0962E8"/>
<path fill-rule="evenodd" clip-rule="evenodd" d="M8.42355 16.6521C8.61881 16.4569 8.93539 16.4569 9.13065 16.6521L11.8735 19.395C12.0688 19.5902 12.0688 19.9068 11.8735 20.1021L9.13065 22.8449C8.93539 23.0402 8.61881 23.0402 8.42355 22.8449C8.22828 22.6497 8.22828 22.3331 8.42355 22.1378L10.8128 19.7485L8.42355 17.3592C8.22828 17.164 8.22828 16.8474 8.42355 16.6521Z" fill="#0962E8"/>
</svg>
