<svg width="24" height="24" viewBox="0 0 24 24" fill="none" xmlns="http://www.w3.org/2000/svg">
<path fill-rule="evenodd" clip-rule="evenodd" d="M3.32056 2.24249C4.34361 1.77562 5.72183 1.5 7.21739 1.5C8.71294 1.5 10.0912 1.77562 11.1142 2.24249C12.0928 2.68908 12.9348 3.40788 12.9348 4.38095C12.9348 5.35402 12.0928 6.07282 11.1142 6.51941C10.0912 6.98628 8.71294 7.2619 7.21739 7.2619C5.72183 7.2619 4.34361 6.98628 3.32056 6.51941C2.34194 6.07282 1.5 5.35402 1.5 4.38095C1.5 3.40788 2.34194 2.68908 3.32056 2.24249ZM3.73572 3.15224C2.82602 3.56738 2.5 4.03906 2.5 4.38095C2.5 4.72285 2.82602 5.19452 3.73572 5.60967C4.60099 6.00453 5.83146 6.2619 7.21739 6.2619C8.60331 6.2619 9.83378 6.00453 10.6991 5.60967C11.6088 5.19452 11.9348 4.72284 11.9348 4.38095C11.9348 4.03906 11.6088 3.56738 10.6991 3.15224C9.83378 2.75738 8.60331 2.5 7.21739 2.5C5.83146 2.5 4.60099 2.75738 3.73572 3.15224Z" fill="#0962E8"/>
<path fill-rule="evenodd" clip-rule="evenodd" d="M2 4.35645C2.27614 4.35645 2.5 4.5803 2.5 4.85645H2H1.5C1.5 4.5803 1.72386 4.35645 2 4.35645ZM12.4348 4.85645L12.9348 4.85647V8.18978C12.9348 9.16284 12.0928 9.88164 11.1142 10.3282C10.0912 10.7951 8.71294 11.0707 7.21739 11.0707C5.72183 11.0707 4.34361 10.7951 3.32056 10.3282C2.34194 9.88164 1.5 9.16284 1.5 8.18978V4.85645H2H2.5V8.18978C2.5 8.53167 2.82601 9.00334 3.73572 9.41849C4.60099 9.81335 5.83146 10.0707 7.21739 10.0707C8.6033 10.0707 9.83378 9.81335 10.6991 9.41849C11.6088 9.00334 11.9348 8.53166 11.9348 8.18978V4.85717L12.4348 4.85645ZM12.4348 4.85645L12.9348 4.85647C12.9348 4.58033 12.7109 4.35645 12.4348 4.35645C12.1586 4.35645 11.9348 4.58103 11.9348 4.85717L12.4348 4.85645Z" fill="#0962E8"/>
<path fill-rule="evenodd" clip-rule="evenodd" d="M2 7.21533C2.27614 7.21533 2.5 7.43919 2.5 7.71533H2H1.5C1.5 7.43919 1.72386 7.21533 2 7.21533ZM12.4348 7.71533L12.9348 7.71537V12.1598C12.9348 13.2776 12.1923 14.2076 11.1665 14.8317C10.1319 15.4613 8.7344 15.8344 7.21739 15.8344C5.70037 15.8344 4.3029 15.4613 3.26824 14.8317C2.24247 14.2076 1.5 13.2776 1.5 12.1598V7.71533H2H2.5V12.1598C2.5 12.7952 2.92548 13.4526 3.78804 13.9774C4.6417 14.4968 5.85293 14.8344 7.21739 14.8344C8.58184 14.8344 9.79307 14.4968 10.6467 13.9774C11.5093 13.4526 11.9348 12.7952 11.9348 12.1598V7.71595L12.4348 7.71533ZM12.4348 7.71533L12.9348 7.71537C12.9348 7.43923 12.7109 7.21533 12.4348 7.21533C12.1586 7.21533 11.9348 7.43981 11.9348 7.71595L12.4348 7.71533Z" fill="#0962E8"/>
<path fill-rule="evenodd" clip-rule="evenodd" d="M2 11.0239C2.27614 11.0239 2.5 11.2478 2.5 11.5239H2H1.5C1.5 11.2478 1.72386 11.0239 2 11.0239ZM12.4348 11.5239L12.9348 11.524V15.9684C12.9348 17.0862 12.1923 18.0161 11.1665 18.6403C10.1319 19.2698 8.7344 19.643 7.21739 19.643C5.70037 19.643 4.3029 19.2698 3.26824 18.6403C2.24247 18.0161 1.5 17.0862 1.5 15.9684V11.5239H2H2.5V15.9684C2.5 16.6038 2.92548 17.2612 3.78804 17.786C4.6417 18.3054 5.85293 18.643 7.21739 18.643C8.58184 18.643 9.79307 18.3054 10.6467 17.786C11.5093 17.2612 11.9348 16.6038 11.9348 15.9684V11.5245L12.4348 11.5239ZM12.4348 11.5239L12.9348 11.524C12.9348 11.2478 12.7109 11.0239 12.4348 11.0239C12.1586 11.0239 11.9348 11.2484 11.9348 11.5245L12.4348 11.5239Z" fill="#0962E8"/>
<path fill-rule="evenodd" clip-rule="evenodd" d="M2 15.7847C2.27614 15.7847 2.5 16.0085 2.5 16.2847H2H1.5C1.5 16.0085 1.72386 15.7847 2 15.7847ZM12.4348 16.2847L12.9348 16.2847V19.618C12.9348 20.5911 12.0928 21.3099 11.1142 21.7565C10.0912 22.2233 8.71294 22.499 7.21739 22.499C5.72183 22.499 4.34361 22.2233 3.32056 21.7565C2.34194 21.3099 1.5 20.5911 1.5 19.618V16.2847H2H2.5V19.618C2.5 19.9599 2.82601 20.4316 3.73572 20.8467C4.60099 21.2416 5.83146 21.499 7.21739 21.499C8.6033 21.499 9.83378 21.2416 10.6991 20.8467C11.6088 20.4316 11.9348 19.9599 11.9348 19.618V16.2854L12.4348 16.2847ZM12.4348 16.2847L12.9348 16.2847C12.9348 16.0086 12.7109 15.7847 12.4348 15.7847C12.1586 15.7847 11.9348 16.0093 11.9348 16.2854L12.4348 16.2847Z" fill="#0962E8"/>
<path fill-rule="evenodd" clip-rule="evenodd" d="M13.5789 10.0272C14.5344 9.45647 15.8218 9.11963 17.2172 9.11963C18.6125 9.11963 19.9 9.45647 20.8554 10.0272C21.8005 10.5918 22.4998 11.4421 22.4998 12.4768C22.4998 13.5115 21.8005 14.3617 20.8554 14.9263C19.9 15.4971 18.6125 15.8339 17.2172 15.8339C15.8218 15.8339 14.5344 15.4971 13.5789 14.9263C12.6338 14.3617 11.9346 13.5115 11.9346 12.4768C11.9346 11.4421 12.6338 10.5918 13.5789 10.0272ZM14.0918 10.8857C13.3059 11.3552 12.9346 11.9335 12.9346 12.4768C12.9346 13.02 13.3059 13.5984 14.0918 14.0678C14.8674 14.5312 15.9712 14.8339 17.2172 14.8339C18.4632 14.8339 19.567 14.5312 20.3426 14.0678C21.1284 13.5984 21.4998 13.02 21.4998 12.4768C21.4998 11.9335 21.1284 11.3552 20.3426 10.8857C19.567 10.4224 18.4632 10.1196 17.2172 10.1196C15.9712 10.1196 14.8674 10.4224 14.0918 10.8857Z" fill="#0962E8"/>
<path fill-rule="evenodd" clip-rule="evenodd" d="M12.4346 11.0239C12.7107 11.0239 12.9346 11.2478 12.9346 11.5239H12.4346H11.9346C11.9346 11.2478 12.1584 11.0239 12.4346 11.0239ZM21.9998 11.5239L22.4998 11.524V15.9684C22.4998 17.0652 21.8301 17.9961 20.8755 18.6297C19.9172 19.2658 18.6224 19.643 17.2172 19.643C15.812 19.643 14.5171 19.2658 13.5589 18.6297C12.6043 17.9961 11.9346 17.0652 11.9346 15.9684V11.5239H12.4346H12.9346V15.9684C12.9346 16.6248 13.3355 17.2812 14.1119 17.7966C14.8846 18.3095 15.981 18.643 17.2172 18.643C18.4533 18.643 19.5498 18.3095 20.3225 17.7966C21.0989 17.2812 21.4998 16.6248 21.4998 15.9684V11.5245L21.9998 11.5239ZM21.9998 11.5239L22.4998 11.524C22.4998 11.2478 22.2759 11.0239 21.9998 11.0239C21.7236 11.0239 21.4998 11.2484 21.4998 11.5245L21.9998 11.5239Z" fill="#0962E8"/>
<path fill-rule="evenodd" clip-rule="evenodd" d="M12.4346 15.7847C12.7107 15.7847 12.9346 16.0085 12.9346 16.2847H12.4346H11.9346C11.9346 16.0085 12.1584 15.7847 12.4346 15.7847ZM21.9998 16.2847L22.4998 16.2847V19.618C22.4998 20.568 21.7396 21.2923 20.8218 21.7492C19.8735 22.2213 18.5983 22.499 17.2172 22.499C15.836 22.499 14.5609 22.2213 13.6125 21.7492C12.6947 21.2923 11.9346 20.568 11.9346 19.618V16.2847H12.4346H12.9346V19.618C12.9346 19.9829 13.2451 20.4492 14.0582 20.854C14.8408 21.2436 15.957 21.499 17.2172 21.499C18.4774 21.499 19.5935 21.2436 20.3762 20.854C21.1893 20.4492 21.4998 19.9829 21.4998 19.618V16.2854L21.9998 16.2847ZM21.9998 16.2847L22.4998 16.2847C22.4998 16.0086 22.2759 15.7847 21.9998 15.7847C21.7236 15.7847 21.4998 16.0093 21.4998 16.2854L21.9998 16.2847Z" fill="#0962E8"/>
</svg>
